**ABCDEFGHIJKLMNOPQRSTUVWXYZabcdefghijklmnopqrstuvwxyz**************************
**PARASOLID !"#$%&'()*+,-./:;<=>?@[\]^_`{|}~0123456789**************************
**PART1;
MC=AMD64;
MC_MODEL=Intel64 Family 6 Model 58 Stepping 9, GenuineIntel;
MC_ID=unknown;
OS=Windows_NT;
OS_RELEASE=unknown;
FRU=Parasolid Version 27.0, build 207,  1-23-2015;
APPL=SOLIDWORKS 2015-2015168;
SITE=;
USER=unknown;
FORMAT=text;
GUISE=transmit;
KEY=part7_para;
FILE=part7_para.x_t;
DATE=Mon Apr 18 17:01:05 2016;
**PART2;
SCH=SCH_2700207_26105;
USFLD_SIZE=0;
**PART3;
**END_OF_HEADER*****************************************************************
T51 : TRANSMIT FILE created by modeller version 270020723 SCH_2700207_26105_1300
6196 0 12 30 CCCCCCCCCCCCCDI5 owner1040 0 CCCCCCCCCA13 boundary_mesh1006 0 A16 i
ndex_map_offset0 0 1 dA9 index_map82 0 A17 node_id_index_map82 0 A20 schema_embe
dding_map82 0 A5 child12 0 A14 lowest_node_id0 0 1 dZ1 1179 0 2 0 0 0 0 1e3 1e-8
 0 3 0 1 0 1 1 4 5 6 0 7 8 0 0 0 0 0 0 0 0 70 11 CI9 list_type0 0 1 uI10 notrans
mit0 0 1 lCCCDCCDI12 finger_index0 0 1 dI12 finger_block1012 0 CZ2 0 4 T1 0 0 1
 20 1 9 9 13 255 4 773 0 1 0 10 0 0 11 0 50 255 5 12 0 12 13 0 0 +.815 0 0 1 0 0
 0 0 1 31 255 6 863 0 14 15 0 0 -.75 0 0 -1 0 0 0 0 -1 .00850000000000017 19 8 C
CCCCCCA5 owner12 0 Z7 5 0 1 11 0 16 V0 16 255 8 71 0 ?17 0 18 19 0 0 1 17 255 17
 0 20 17 17 0 21 8 0 0 +16 18 59 0 ?22 8 23 24 0 0 1 31 19 779 0 8 25 24 0 -.815
 .0141421356279617 .01414213561950194 1 0 0 0 0 1 .002675 31 25 729 0 26 27 19 0
 +.801886087953089 -1956010833446995e-32 0 1 222088159996117e-29 -15413484628268
95e-45 0 -1 0 .00850000000000013 31 24 785 0 18 19 28 0 -.815 -.0141421356195002
6 .01414213562796406 1 0 0 0 0 1 .002675 31 28 791 0 23 24 29 0 -.815 -.01414213
562796158 -.01414213561949994 1 0 0 0 0 1 .002675 16 23 47 0 ?30 18 31 28 0 0 1
 31 29 797 0 31 28 32 0 -.815 -598299099963774e-26 -.02 1 0 1850371707708595e-29
 -1850371707708595e-29 0 1 .00299999999999989 16 31 35 0 ?33 23 34 29 0 0 1 31 3
2 803 0 34 29 35 0 -.815 .01414213561950038 -.01414213562795984 1 0 -20751832235
98435e-29 2075183223598435e-29 0 1 .002675 16 34 23 0 ?36 31 37 32 0 0 1 31 35 8
09 0 37 32 38 0 -.815 0 0 -1 0 0 0 0 -1 .02499509709667925 16 37 9 0 ?39 34 40 3
5 0 0 1 38 255 38 815 0 40 35 41 0 +13 42 43 44 44 16 40 88 0 ?45 37 46 38 0 0 1
 38 41 825 0 46 38 47 0 +48 42 49 50 50 51 255 13 95 0 51 48 5 52 +.804242155179
478 .0141421356279617 .01414213561950194 1 0 0 .002675 0 0 1 52 255 42 469 0 53
 54 55 56 +.805998777568908 -952996768955813e-32 0 1 222088159996117e-29 -222088
159996117e-29 .02499509709667925 .970295726275999 .2419218955996555 222088159996
117e-29 0 1 40 255 21 43 0 1 21 .0001645154232342745 .3505611807804885 ??.804306
317276133 .0141421356279617 .01146713561950196 .804507238707116 .015045441842043
5 .01162426690100226 .804732098253983 .01583774753093715 .0120731925863362 .8049
57785263847 .0164407103296911 .01277385957258392 .805156915659315 .0167701168738
595 .01364279648503608 .805307269993374 .01678366984830775 .01456394358853608 .8
05396218677496 .01649157100217405 .01542111115578005 .805419661113018 .015942573
53588715 .01612053101469015 .805378927541052 .01520538045980085 .016596750747698
05 .805278333105552 .01435725275367296 .0168084719865482 .805245302980286 .01414
21356279617 .01681713561950195 .805073994477155 .0132458949207572 .0166625279688
7015 .804866712371053 .0124597154179755 .01622182002754015 .804639517885037 .011
85820713169802 .0155347215680002 .804417779575432 .01152009573225944 .0146717881
3327608 .804234225357156 .01149709974662526 .0137428735671581 .804118867205 .011
78624139477292 .0128750968031961 .804087069288277 .01233065781272464 .0121738436
8869 .804137149866651 .01305324555995872 .0116987888533222 .804258635384722 .013
88481311458552 .01147954099693814 .804306317276133 .0141421356279617 .0114671356
1950196 41 255 1 44 H.804306317276133 .0141421356279617 .01146713561950196 14 25
5 53 444 57 1e-8 58 59 60 4 42 +0 0 59 58 16 52 54 555 0 1 61 42 62 +.8059987775
68908 -952996768955813e-32 0 1 222088159996115e-29 -222088159996115e-29 .0249950
9709667945 .970295726276 .241921895599655 222088159996115e-29 -1 0 51 55 387 0 5
8 42 63 0 +.75 0 0 -1 0 0 .02499509709667925 0 0 -1 141 255 56 41 64 64 42 141 6
4 38 56 56 42 14 58 374 65 1e-8 66 53 67 4 55 +0 0 53 66 16 51 63 327 0 66 55 68
 69 +.8040180383785 .01414213561950038 -.01414213562795984 1 0 -2075183223598435
e-29 .002675 2075183223598435e-29 0 1 14 66 316 70 1e-8 71 58 72 4 63 -0 0 58 71
 16 51 68 269 0 71 63 73 74 +.803939408232956 -598299099963774e-26 -.02 1 0 1850
371707708595e-29 .00299999999999989 -1850371707708595e-29 0 1 141 69 15 69 69 63
 38 15 855 0 75 76 6 0 +63 54 77 78 78 16 75 320 0 ?79 80 81 15 0 0 1 38 76 845
 0 80 47 15 0 +68 54 82 83 83 40 21 77 0 1 21 .000163235096208467 .3455367594618
735 ??.805245302980542 .0141421356195 -.01681713562795985 .805360710971216 .0150
1547745343825 -.0166705539163541 .805416229786151 .01579810542297595 -.016242942
3801318 .805406935589335 .0163915285384713 -.01558984295199985 .805335352603713
 .01673830940763595 -.01478673369016392 .805206946642874 .0168073655323121 -.013
91371822088594 .805029951607552 .0165869969634945 -.01305665047898574 .804817209
137506 .0160885686089263 -.01230719050134788 .804588636451785 .01535465957380795
 -.0117577257092938 .804372464725296 .0144664504616572 -.0114868682434659 .80430
6317275823 .01414213561950034 -.01146713562795986 .804163716254324 .013271832060
73272 -.01161266993030784 .804091853711165 .0124886644747662 -.0120393617044159
 .804103162542192 .0118990322388125 -.0126847021908698 .804191522478302 .0115525
8447532364 -.0134714271430778 .804344505047491 .0114739757867677 -.0143333112199
9992 .804545637706378 .01168291524988074 -.01519468499670595 .804771913714191 .0
1217828678482702 -.0159584293141659 .804994941947838 .0129154570194099 -.0165192
945650259 .805186955627701 .01380216215920832 -.01679544357207185 .8052453029805
42 .0141421356195 -.01681713562795985 41 1 78 H.805245302980542 .0141421356195 -
.01681713562795985 16 80 264 0 ?84 85 75 76 0 0 1 38 47 835 0 85 41 76 0 +73 54
 86 87 87 40 21 82 0 1 21 .000183909739556332 .350135589259977 ??.80400537597725
6 -598299116480916e-26 -.017 .80405184373303 -.000964539144853293 -.017159284553
2158 .804182120454549 -.001819977378910345 -.01761511376329205 .804378180316728
 -.00249009040881019 -.01832684436296005 .804618970744285 -.002902988224478565 -
.0192432573731598 .804875222979223 -.002987848960339585 -.0202697380691499 .8051
14369321404 -.002715419527548725 -.02127534184511195 .805308300448754 -.00211804
2529863705 -.0221245931062257 .805438782811181 -.00128044490387587 -.02271301693
01799 .80549780534877 -.0003124634522348055 -.02298368339384995 .805501343994315
 -598297337965837e-26 -.023 .805465877437555 .00097564592233661 -.02283691998874
395 .805362770968366 .001841163560876145 -.0223685684959598 .805199485800347 .00
250920308581478 -.0216443539290858 .80498613129294 .00290973162965093 -.02073038
46990359 .804739033450017 .00298668086672599 -.0197176219473918 .804483238999312
 .0027136736843541 -.0187209475763759 .804253081459061 .002111741865650425 -.017
86914424054585 .804086160449647 .001261305045809964 -.0172780320416399 .80400941
3279398 .0002871108673293845 -.01701377037948595 .804005375977256 -5982991164809
16e-26 -.017 41 1 83 H.804005375977256 -598299116480916e-26 -.017 16 85 204 0 ?8
8 46 80 47 0 0 1 51 73 211 0 89 68 48 90 +.804016401959602 -.01414213562796158 -
.01414213561949994 1 0 0 .002675 0 0 1 40 21 86 0 1 21 .0001645154232342745 .350
561180780389 ??.805245302980286 -.0141421356279616 -.01681713561949995 .80507399
4477155 -.01324589492075712 -.0166625279688659 .804866712371053 -.01245971541797
542 -.0162218200275339 .804639517885037 -.01185820713169794 -.01553472156799595
 .804417779575432 -.01152009573225936 -.01467178813326986 .804234225357156 -.011
49709974662516 -.0137428735671521 .804118867205 -.0117862413947727 -.01287509680
319188 .804087069288277 -.01233065781272454 -.0121738436886858 .804137149866651
 -.01305324555995862 -.011698788853318 .804258635384722 -.0138848131145854 -.011
47954099693394 .804306317276133 -.01414213562796162 -.01146713561949996 .8045072
38707116 -.01504544184204335 -.01162426690099982 .804732098253983 -.015837747530
93705 -.012073192586332 .804957785263847 -.01644071032969095 -.01277385957257992
 .805156915659315 -.01677011687385935 -.01364279648503186 .805307269993374 -.016
7836698483076 -.01456394358853186 .805396218677496 -.0164915710021739 -.01542111
115577605 .805419661113018 -.01594257353588705 -.0161205310146859 .8053789275410
52 -.0152053804598007 -.01659675074769385 .805278333105552 -.01435725275367288 -
.0168084719865418 .805245302980286 -.0141421356279616 -.01681713561949995 41 1 8
7 H.805245302980286 -.0141421356279616 -.01681713561949995 14 89 200 91 1e-8 92
 71 93 4 73 -0 0 71 92 16 51 48 153 0 92 73 13 94 +.80424215517979 -.01414213561
950026 .01414213562796406 1 0 0 .002675 0 0 1 141 90 47 90 90 73 14 92 142 95 1e
-8 51 89 96 4 48 -0 0 89 51 16 141 94 41 94 94 48 81 255 1 95 1053 97 92 0 0 91
 98 99 14 51 84 98 1e-8 12 92 100 4 13 -0 0 92 12 16 15 255 96 871 0 101 92 102
 13 16 3 0 0 0 0 0 0 7 12 14 12 2 103 1e-8 0 51 20 4 5 +0 0 51 0 16 81 1 103 105
5 97 12 0 0 98 0 104 15 20 69 0 17 12 105 15 105 57 0 22 12 106 17 22 0 105 22 2
2 0 107 18 0 0 +15 106 45 0 30 12 108 17 30 0 106 30 30 0 109 23 0 0 +15 108 33
 0 33 12 110 17 33 0 108 33 33 0 111 31 0 0 +15 110 21 0 36 12 112 17 36 0 110 3
6 36 0 113 34 0 0 +15 112 7 0 39 12 0 17 39 0 112 39 39 0 114 37 0 0 +17 114 0 1
15 114 114 0 39 37 0 0 -15 115 376 0 114 58 0 17 113 0 116 113 113 0 36 34 0 0 -
15 116 318 0 113 66 0 17 111 0 117 111 111 0 33 31 0 0 -15 117 875 0 111 71 118
 14 71 258 119 1e-8 89 66 117 4 68 -0 0 66 89 16 15 118 260 0 120 71 0 17 120 0
 118 120 120 0 84 80 0 0 -17 84 0 121 84 84 0 120 80 0 0 +15 121 530 0 84 53 0 8
1 1 119 1051 97 71 0 0 70 91 122 80 255 1 97 0 123 8001 0 0 0 0 3 5 0 0 0 FFFFTF
TFFFFFFF2 81 1 70 1050 97 66 0 0 65 119 124 81 1 91 1052 97 89 0 0 119 95 125 83
 255 3 122 .498039215686275 .498039215686275 .498039215686275 83 3 125 .49803921
5686275 .498039215686275 .498039215686275 81 1 65 1049 97 58 0 0 57 70 126 83 3
 124 .498039215686275 .498039215686275 .498039215686275 81 1 57 1048 97 53 0 0 1
27 65 128 83 3 126 .498039215686275 .498039215686275 .498039215686275 81 1 127 1
047 97 59 0 0 129 57 130 83 3 128 .498039215686275 .498039215686275 .49803921568
6275 14 59 665 127 1e-8 53 10 131 4 61 +0 0 10 53 16 81 1 129 1046 97 10 0 0 0 1
27 132 83 3 130 .498039215686275 .498039215686275 .498039215686275 14 10 739 129
 1e-8 59 0 133 4 134 +0 0 0 59 16 83 3 132 .498039215686275 .498039215686275 .49
8039215686275 15 133 741 0 135 10 0 50 134 746 0 10 0 61 0 +.75 -.00850000000000
016 0 -1 0 0 0 0 -1 51 61 678 0 59 134 54 0 +.75 0 0 -1 0 0 .00850000000000017 0
 0 -1 17 135 0 133 135 135 0 136 14 0 0 -17 136 0 137 136 136 0 135 14 0 0 +16 1
4 668 0 ?136 26 0 6 0 0 1 16 26 453 0 ?138 81 14 25 0 0 1 17 138 0 139 138 138 0
 140 26 0 0 +16 81 379 0 ?141 75 26 27 0 0 1 17 141 0 67 141 141 0 142 81 0 0 +3
1 27 633 0 81 0 25 0 -.805998777568908 0 0 -1 0 0 0 0 -1 .02499509709667925 15 6
7 879 0 141 58 115 17 142 0 60 142 142 0 141 81 0 0 -15 60 881 0 142 53 143 15 1
43 446 0 45 53 144 17 45 0 143 45 45 0 145 40 0 0 +15 144 447 0 146 53 139 17 14
6 0 144 146 146 0 101 46 0 0 +15 139 448 0 138 53 147 15 147 528 0 88 53 148 17
 88 0 147 88 88 0 149 85 0 0 +15 148 529 0 79 53 121 17 79 0 148 79 79 0 150 75
 0 0 +17 150 0 72 150 150 0 79 75 0 0 -15 72 877 0 150 66 116 17 149 0 93 149 14
9 0 88 85 0 0 -15 93 873 0 149 89 151 15 151 202 0 109 89 0 17 109 0 151 109 109
 0 30 23 0 0 -17 101 0 96 101 101 0 146 46 0 0 -16 46 146 0 ?146 40 85 41 0 0 1
 17 145 0 100 145 145 0 45 40 0 0 -15 100 869 0 145 51 152 15 152 86 0 21 51 0 1
7 21 0 152 21 21 0 17 8 0 0 -17 140 0 131 140 140 0 138 26 0 0 -15 131 883 0 140
 59 137 15 137 667 0 136 59 0 79 255 15 123 SDL/TYSA_COLOUR17 107 0 102 107 107
 0 22 18 0 0 -15 102 144 0 107 92 0 81 1 98 1054 97 51 0 0 95 103 153 83 3 104 .
498039215686275 .498039215686275 .498039215686275 83 3 153 .498039215686275 .498
039215686275 .498039215686275 83 3 99 .498039215686275 .498039215686275 .4980392
15686275 141 74 76 74 74 68 141 62 15 154 155 54 141 154 76 155 62 54 141 155 47
 62 154 54 141 52 38 52 52 13 40 21 49 0 1 21 .0001632350962086685 .345536759461
9205 ??.804306317275823 -.01414213561950038 .0114671356279641 .804163716254324 -
.01327183206073274 .01161266993031206 .804091853711165 -.01248866447476616 .0120
393617044201 .804103162542192 -.01189903223881252 .01268470219087402 .8041915224
78302 -.01155258447532354 .01347142714308002 .804344505047491 -.0114739757867675
8 .01433331122000414 .804545637706378 -.01168291524988056 .01519468499671015 .80
4771913714191 -.01217828678482692 .01595842931417015 .804994941947838 -.01291545
701940956 .0165192945650301 .805186955627701 -.01380216215920794 .01679544357207
83 .805245302980543 -.01414213561950034 .01681713562796405 .805360710971216 -.01
501547745343855 .0166705539163601 .805416229786151 -.01579810542297615 .01624294
238013625 .805406935589335 -.01639152853847145 .01558984295200405 .8053353526037
13 -.0167383094076359 .01478673369016814 .805206946642874 -.0168073655323119 .01
391371822088994 .805029951607552 -.0165869969634942 .0130566504789902 .804817209
137506 -.01608856860892575 .0123071905013521 .804588636451785 -.0153546595738074
 .01175772570929822 .804372464725296 -.01446645046165662 .01148686824347012 .804
306317275823 -.01414213561950038 .0114671356279641 41 1 50 H.804306317275823 -.0
1414213561950038 .0114671356279641 19 11 774 0 1 0 7 4 S0 74 4 CI16 index_map_of
fset0 0 1 dCCZ20 9 1 0 0 103 0 0 0 0 0 0 0 0 0 0 0 0 0 0 0 0 0 0 0 1 0 
