**ABCDEFGHIJKLMNOPQRSTUVWXYZabcdefghijklmnopqrstuvwxyz**************************
**PARASOLID !"#$%&'()*+,-./:;<=>?@[\]^_`{|}~0123456789**************************
**PART1;
MC=AMD64;
MC_MODEL=Intel64 Family 6 Model 58 Stepping 9, GenuineIntel;
MC_ID=unknown;
OS=Windows_NT;
OS_RELEASE=unknown;
FRU=Parasolid Version 27.0, build 207,  1-23-2015;
APPL=SOLIDWORKS 2015-2015168;
SITE=;
USER=unknown;
FORMAT=text;
GUISE=transmit;
KEY=part6_para;
FILE=part6_para.x_t;
DATE=Mon Apr 18 16:40:03 2016;
**PART2;
SCH=SCH_2700207_26105;
USFLD_SIZE=0;
**PART3;
**END_OF_HEADER*****************************************************************
T51 : TRANSMIT FILE created by modeller version 270020723 SCH_2700207_26105_1300
6196 0 12 30 CCCCCCCCCCCCCDI5 owner1040 0 CCCCCCCCCA13 boundary_mesh1006 0 A16 i
ndex_map_offset0 0 1 dA9 index_map82 0 A17 node_id_index_map82 0 A20 schema_embe
dding_map82 0 A5 child12 0 A14 lowest_node_id0 0 1 dZ1 782 0 2 0 0 0 0 1e3 1e-8
 0 3 0 1 0 1 1 4 5 6 0 7 8 0 0 0 0 0 0 0 0 70 11 CI9 list_type0 0 1 uI10 notrans
mit0 0 1 lCCCDCCDI12 finger_index0 0 1 dI12 finger_block1012 0 CZ2 0 4 T1 0 0 1
 20 1 9 9 13 255 4 472 0 1 0 10 0 0 11 0 50 255 5 12 0 12 13 0 0 +.033 .02350199
999999955 0 2535780201199715e-96 1 577623219266384e-47 0 -577623219266384e-47 1
 31 255 6 546 0 14 15 0 0 -0 -.02349800000000045 0 -76001527567963e-30 -1 0 1 -7
6001527567963e-30 0 .033 19 8 CCCCCCCA5 owner12 0 Z7 5 0 1 11 0 16 V0 16 255 8 9
 0 ?17 0 18 19 0 0 1 17 255 17 0 20 17 17 0 21 8 0 0 +16 18 29 0 ?22 8 23 24 0 0
 1 31 19 478 0 8 0 24 0 -0 .02350199999999955 0 -76001527567963e-30 -1 0 1 -7600
1527567963e-30 0 .033 31 24 482 0 18 19 25 0 -0 .01450199999999954 0 -7600152756
7963e-30 -1 0 1 -76001527567963e-30 0 .033 31 25 488 0 23 24 26 0 -0 .0145019999
9999954 0 -76001527567963e-30 -1 0 1 -76001527567963e-30 0 .042 16 23 96 0 ?27 1
8 28 25 0 0 1 38 255 26 496 0 28 25 29 0 +30 31 32 33 33 16 28 131 0 ?34 23 35 2
6 0 0 1 31 29 503 0 35 26 36 0 -0 -.01449800000000046 0 -76001527567963e-30 -1 0
 1 -76001527567963e-30 0 .042 51 255 30 259 0 37 38 31 39 +-.042504 199999999954
4035e-21 0 1 0 444089209850064e-29 .0125 444089209850064e-29 0 -1 51 31 151 0 40
 30 41 42 +0 1999999999544035e-21 0 -76001527567963e-30 -1 0 .042 1 -76001527567
963e-30 0 40 255 21 32 -.03927621115030545 .999949975579812 21 .0007472225650248
28 .347717143247009 ??.04009675797368205 199999999954342e-20 -.01250000000000018
 .04029901217419495 -.00403041642392437 -.01183172082937012 .040812167827487 -.0
0760609061321866 -.00991801175746021 .04143360493371695 -.01043800085265206 -.00
687432776325614 .041895077344016 -.01214079645143842 -.00296689978579612 .042 -.
0124980000000004 0 .0418055210035 -.01182811354020312 .00403712937938394 .041303
48213371505 -.00990898564069707 .00761724120859197 .04068100340785595 -.00686779
171954965 .01044298624579998 .040205989145335 -.00295968248716401 .0121440700280
1 .04009675797368105 1999999999545565e-21 .0125 .04029901217419495 .004034416423
923495 .0118317208293639 .040812167827486 .00761009061321782 .00991801175745399
 .04143360493371695 .0104420008526512 .0068743277632497 .041895077344015 .012144
79645143752 .0029668997857919 .042 .0125019999999995 0 .0418055210035 .011832113
54020202 -.00403712937939016 .04130348213371505 .00991298564069593 -.00761724120
859597 .04068100340785595 .0068717917195483 -.01044298624580398 .040205989145335
 .002963682487162665 -.012144070028014 .04009675797368205 199999999954342e-20 -.
01250000000000018 41 255 1 33 H.04009675797368205 199999999954342e-20 -.01250000
000000018 14 255 40 128 43 1e-8 44 37 45 4 31 +0 0 37 44 16 50 41 102 0 44 31 13
 0 +.042 .01450199999999954 0 2535780201199715e-96 1 577623219266384e-47 0 -5776
23219266384e-47 1 141 255 42 36 46 46 31 38 36 507 0 47 29 15 0 +30 31 48 49 49
 141 46 26 42 42 31 16 47 136 0 ?50 35 51 36 0 0 1 31 15 540 0 51 36 6 0 -0 -.01
449800000000046 0 -76001527567963e-30 -1 0 1 -76001527567963e-30 0 .033 40 21 48
 -.0196382931424981 .999948317088399 21 .000747222565024855 .347717143247011 ??-
.042 .0125019999999995 0 -.0418055210035 .0118321135402021 .00403712937938394 -.
04130348213371495 .00991298564069605 .00761724120859197 -.04068100340785595 .006
87179171954839 .01044298624579998 -.040205989145335 .00296368248716268 .01214407
0028008 -.04009675797368205 1999999999545565e-21 .0125 -.04029901217419505 -.004
03041642392438 .0118317208293639 -.040812167827487 -.00760609061321866 .00991801
175745399 -.04143360493371805 -.0104380008526521 .0068743277632497 -.04189507734
4016 -.0121407964514384 .0029668997857919 -.042 -.0124980000000004 0 -.041805521
0035 -.011828113540203 -.00403712937939016 -.04130348213371495 -.009908985640696
95 -.00761724120859797 -.04068100340785595 -.00686779171954929 -.010442986245805
96 -.040205989145335 -.002959682487163585 -.012144070028014 -.04009675797368205
 199999999958139e-20 -.01250000000000018 -.04029901217419505 .00403441642392348
 -.01183172082937012 -.040812167827487 .00761009061321775 -.00991801175746021 -.
04143360493371805 .0104420008526512 -.00687432776325614 -.041895077344016 .01214
479645143754 -.00296689978579612 -.042 .0125019999999995 0 41 1 49 H-.042 .01250
19999999995 0 16 51 330 0 ?52 47 14 15 0 0 1 17 52 0 53 52 52 0 54 51 0 0 +16 14
 385 0 ?55 51 0 6 0 0 1 17 55 0 56 55 55 0 57 14 0 0 +15 255 56 384 0 55 58 0 17
 57 0 59 57 57 0 55 14 0 0 -15 59 444 0 57 10 0 14 10 442 60 1e-8 58 0 59 4 61 +
0 0 0 58 16 81 255 1 60 696 62 10 0 0 0 63 64 14 58 382 63 1e-8 65 10 66 4 67 +0
 0 10 65 16 50 61 449 0 10 0 67 0 +0 -.02349800000000045 0 -439002470229696e-63
 -1 577623219266384e-47 0 -577623219266384e-47 -1 13 16 3 0 0 0 0 0 0 7 12 14 12
 2 68 1e-8 0 69 20 4 5 +0 0 69 0 16 81 1 68 703 62 12 0 0 70 0 71 14 69 24 70 1e
-8 12 44 72 4 13 +0 0 44 12 16 15 20 7 0 17 12 0 81 1 70 702 62 69 0 0 73 68 74
 14 44 90 73 1e-8 69 40 75 4 41 +0 0 40 69 16 15 72 552 0 22 69 76 51 13 35 0 69
 41 5 0 +0 1999999999544035e-21 0 -76001527567963e-30 -1 0 .033 1 -7600152756796
3e-30 0 17 22 0 72 22 22 0 77 18 0 0 +15 76 26 0 21 69 0 17 21 0 76 21 21 0 17 8
 0 0 -17 77 0 75 77 77 0 22 18 0 0 -15 75 92 0 77 44 78 15 78 93 0 27 44 0 17 27
 0 78 27 27 0 79 23 0 0 +17 79 0 45 79 79 0 27 23 0 0 -15 45 556 0 79 40 80 15 8
0 555 0 50 40 81 17 50 0 80 50 50 0 82 47 0 0 +15 81 554 0 83 40 84 17 83 0 81 8
3 83 0 85 35 0 0 +15 84 130 0 34 40 0 17 34 0 84 34 34 0 86 28 0 0 +17 86 0 87 8
6 86 0 34 28 0 0 -15 87 558 0 86 37 88 14 37 244 89 1e-8 40 65 87 4 30 -0 0 65 4
0 16 15 88 246 0 82 37 0 17 82 0 88 82 82 0 50 47 0 0 -81 1 89 699 62 37 0 0 90
 43 91 14 65 324 90 1e-8 37 58 92 4 38 +0 0 58 37 16 81 1 90 698 62 65 0 0 63 89
 93 15 92 326 0 85 65 53 50 38 336 0 65 67 30 0 +.033 -.01449800000000046 0 -439
002470229696e-63 -1 577623219266384e-47 0 -577623219266384e-47 -1 51 67 393 0 58
 61 38 0 +0 1999999999544035e-21 0 -76001527567963e-30 -1 0 .033 1 -760015275679
63e-30 0 17 85 0 92 85 85 0 83 35 0 0 -15 53 327 0 52 65 0 16 35 134 0 ?83 28 47
 29 0 0 1 80 255 1 62 0 94 8001 0 0 0 0 3 5 0 0 0 FFFFTFTFFFFFFF2 81 1 63 697 62
 58 0 0 60 90 95 83 255 3 93 .886274509803922 .407843137254902 .1215686274509804
 83 3 95 .886274509803922 .407843137254902 .1215686274509804 79 255 15 94 SDL/TY
SA_COLOUR81 1 43 700 62 40 0 0 89 73 96 83 3 91 .886274509803922 .40784313725490
2 .1215686274509804 81 1 73 701 62 44 0 0 43 70 97 83 3 96 .886274509803922 .407
843137254902 .1215686274509804 83 3 97 .886274509803922 .407843137254902 .121568
6274509804 83 3 74 .886274509803922 .407843137254902 .1215686274509804 83 3 71 .
886274509803922 .407843137254902 .1215686274509804 15 66 560 0 54 58 56 17 54 0
 66 54 54 0 52 51 0 0 -83 3 64 .886274509803922 .407843137254902 .12156862745098
04 141 39 26 98 98 30 141 98 36 39 39 30 19 11 473 0 1 0 7 4 S0 74 4 CI16 index_
map_offset0 0 1 dCCZ20 9 1 0 0 68 0 0 0 0 0 0 0 0 0 0 0 0 0 0 0 0 0 0 0 1 0 
